<svg width="48" height="48" viewBox="0 0 48 48" fill="none" xmlns="http://www.w3.org/2000/svg">
<g filter="url(#filter0_d_12_21)">
<rect x="44" y="2" width="40" height="40" rx="5" transform="rotate(90 44 2)" fill="white"/>
</g>
<path d="M23.698 13.0667C23.6418 13.1019 21.7019 14.9441 19.3929 17.1624C16.0508 20.3687 15.1722 21.2265 15.0984 21.3706C15.0176 21.5183 15 21.5956 15 21.8031C15 22.116 15.1019 22.355 15.3198 22.5378C15.5588 22.7417 15.7134 22.7734 16.5358 22.7734H17.2492V26.4472C17.2492 30.0824 17.2492 30.121 17.323 30.3144C17.4214 30.5745 17.6744 30.8277 17.9345 30.9261C18.1243 30.9964 18.191 30.9999 19.9482 30.9999C21.6878 30.9999 21.7687 30.9964 21.8671 30.9296C21.9268 30.8945 22.0076 30.8031 22.0533 30.7292L22.1341 30.5956V28.0609C22.1341 25.9304 22.1412 25.5191 22.1833 25.4593C22.2325 25.396 22.2923 25.3925 23.9968 25.3925C25.7012 25.3925 25.761 25.396 25.8102 25.4593C25.8523 25.5191 25.8594 25.9304 25.8594 28.0574V30.5851L25.9367 30.7257C25.9789 30.7995 26.0667 30.8945 26.1265 30.9331C26.2354 30.9999 26.2987 30.9999 28.098 30.9929L29.9536 30.9824L30.1293 30.8945C30.3683 30.7785 30.5827 30.5464 30.6705 30.3109C30.7443 30.121 30.7443 30.0683 30.7443 26.4472V22.7804L31.528 22.7663C32.389 22.7523 32.4453 22.7417 32.6948 22.5238C33.0005 22.2531 33.0919 21.7363 32.8986 21.3706C32.8213 21.2265 31.9462 20.3722 28.6006 17.1624C26.2916 14.9441 24.3552 13.1019 24.2955 13.0667C24.1514 12.9753 23.8421 12.9753 23.698 13.0667Z" fill="black"/>
<defs>
<filter id="filter0_d_12_21" x="0" y="0" width="48" height="48" filterUnits="userSpaceOnUse" color-interpolation-filters="sRGB">
<feFlood flood-opacity="0" result="BackgroundImageFix"/>
<feColorMatrix in="SourceAlpha" type="matrix" values="0 0 0 0 0 0 0 0 0 0 0 0 0 0 0 0 0 0 127 0" result="hardAlpha"/>
<feOffset dy="2"/>
<feGaussianBlur stdDeviation="2"/>
<feComposite in2="hardAlpha" operator="out"/>
<feColorMatrix type="matrix" values="0 0 0 0 0 0 0 0 0 0 0 0 0 0 0 0 0 0 0.25 0"/>
<feBlend mode="normal" in2="BackgroundImageFix" result="effect1_dropShadow_12_21"/>
<feBlend mode="normal" in="SourceGraphic" in2="effect1_dropShadow_12_21" result="shape"/>
</filter>
</defs>
</svg>
