<svg width="48" height="48" viewBox="0 0 48 48" fill="none" xmlns="http://www.w3.org/2000/svg">
<g filter="url(#filter0_d_12_25)">
<rect x="44" y="2" width="40" height="40" rx="5" transform="rotate(90 44 2)" fill="white"/>
</g>
<path d="M21.7723 13.0156C18.4402 13.3726 15.7708 15.8155 15.1128 19.1088C14.9624 19.8651 14.9624 21.143 15.1128 21.8993C15.4136 23.4027 16.1232 24.7416 17.176 25.7939C18.2569 26.8745 19.5399 27.5604 21.0908 27.8845C21.8146 28.0396 23.154 28.0396 23.8966 27.8892C24.7425 27.7201 25.6402 27.3818 26.2793 26.9919C26.4532 26.8886 26.613 26.7993 26.6271 26.7993C26.6459 26.7993 27.5576 27.6966 28.6574 28.7865C30.9273 31.0462 30.8709 31.0039 31.5242 30.9992C31.9942 30.9992 32.2762 30.8865 32.5816 30.5811C32.8871 30.2758 32.9999 29.9939 32.9999 29.5241C32.9999 28.8617 33.0469 28.9228 30.777 26.6443C28.8454 24.7087 28.7796 24.6335 28.8407 24.5302C29.3435 23.7362 29.7007 22.8436 29.8887 21.89C30.0391 21.1524 30.0391 19.8651 29.8887 19.1088C29.2824 16.0645 26.9608 13.7343 23.9342 13.1283C23.4736 13.0343 22.2047 12.9686 21.7723 13.0156ZM23.2997 15.3128C24.4041 15.4773 25.4099 15.9893 26.2135 16.7927C27.7785 18.3571 28.2015 20.7296 27.271 22.7027C26.9796 23.3181 26.6741 23.755 26.2135 24.2154C24.6485 25.7751 22.2752 26.2027 20.3107 25.2772C18.6752 24.502 17.5707 23.0409 17.3076 21.3027C16.9645 19.0618 18.0783 16.8773 20.0992 15.8343C21.1002 15.3175 22.1812 15.139 23.2997 15.3128Z" fill="black"/>
<defs>
<filter id="filter0_d_12_25" x="0" y="0" width="48" height="48" filterUnits="userSpaceOnUse" color-interpolation-filters="sRGB">
<feFlood flood-opacity="0" result="BackgroundImageFix"/>
<feColorMatrix in="SourceAlpha" type="matrix" values="0 0 0 0 0 0 0 0 0 0 0 0 0 0 0 0 0 0 127 0" result="hardAlpha"/>
<feOffset dy="2"/>
<feGaussianBlur stdDeviation="2"/>
<feComposite in2="hardAlpha" operator="out"/>
<feColorMatrix type="matrix" values="0 0 0 0 0 0 0 0 0 0 0 0 0 0 0 0 0 0 0.25 0"/>
<feBlend mode="normal" in2="BackgroundImageFix" result="effect1_dropShadow_12_25"/>
<feBlend mode="normal" in="SourceGraphic" in2="effect1_dropShadow_12_25" result="shape"/>
</filter>
</defs>
</svg>
